<svg xmlns="http://www.w3.org/2000/svg" width="1200" height="900" viewBox="0 0 1200 900">
  <rect width="1200" height="900" fill="#243d32"/>
  <path d="M180 105 1050 165 980 805 115 735Z" fill="#fffef9" stroke="#f2ead9" stroke-width="8"/>
  <g transform="translate(225 190) rotate(3)" fill="#1f3f34">
    <rect width="115" height="34" rx="8" fill="#0e8c65"/>
    <rect y="70" width="640" height="14" rx="7" opacity=".9"/>
    <rect y="108" width="590" height="10" rx="5" opacity=".35"/>
    <rect y="137" width="620" height="10" rx="5" opacity=".35"/>
    <rect y="166" width="520" height="10" rx="5" opacity=".35"/>
    <rect y="230" width="280" height="180" rx="12" fill="#dcefe7"/>
    <rect x="330" y="230" width="300" height="14" rx="7" opacity=".55"/>
    <rect x="330" y="270" width="260" height="10" rx="5" opacity=".3"/>
    <rect x="330" y="302" width="280" height="10" rx="5" opacity=".3"/>
    <rect x="330" y="334" width="225" height="10" rx="5" opacity=".3"/>
    <rect y="465" width="630" height="10" rx="5" opacity=".25"/>
  </g>
  <ellipse cx="810" cy="250" rx="105" ry="55" fill="#fff" opacity=".34"/>
</svg>
